<svg xmlns="http://www.w3.org/2000/svg" version="1.1" xmlns:xlink="http://www.w3.org/1999/xlink" xmlns:svgjs="http://svgjs.com/svgjs" width="500" height="500"><defs id="SvgjsDefs1001"></defs><polygon id="SvgjsPolygon1007" points="2.5,2.5" fill="white"></polygon><polygon id="SvgjsPolygon1008" points="2.5,52" fill="white"></polygon><polygon id="SvgjsPolygon1009" points="2.5,101.5" fill="white"></polygon><polygon id="SvgjsPolygon1010" points="2.5,151" fill="white"></polygon><polygon id="SvgjsPolygon1011" points="2.5,200.5" fill="white"></polygon><polygon id="SvgjsPolygon1012" points="2.5,250" fill="white"></polygon><polygon id="SvgjsPolygon1013" points="2.5,299.5" fill="white"></polygon><polygon id="SvgjsPolygon1014" points="2.5,349" fill="white"></polygon><polygon id="SvgjsPolygon1015" points="2.5,398.5" fill="white"></polygon><polygon id="SvgjsPolygon1016" points="2.5,448" fill="white"></polygon><polygon id="SvgjsPolygon1017" points="52,2.5" fill="white"></polygon><polygon id="SvgjsPolygon1018" points="52,52" fill="white"></polygon><polygon id="SvgjsPolygon1019" points="52,101.5" fill="white"></polygon><polygon id="SvgjsPolygon1020" points="52,151" fill="white"></polygon><polygon id="SvgjsPolygon1021" points="52,200.5" fill="white"></polygon><polygon id="SvgjsPolygon1022" points="52,250" fill="white"></polygon><polygon id="SvgjsPolygon1023" points="52,299.5" fill="white"></polygon><polygon id="SvgjsPolygon1024" points="52,349" fill="white"></polygon><polygon id="SvgjsPolygon1025" points="52,398.5" fill="white"></polygon><polygon id="SvgjsPolygon1026" points="52,448" fill="white"></polygon><polygon id="SvgjsPolygon1027" points="101.5,2.5" fill="white"></polygon><polygon id="SvgjsPolygon1028" points="101.5,52" fill="white"></polygon><polygon id="SvgjsPolygon1029" points="101.5,101.5" fill="white"></polygon><polygon id="SvgjsPolygon1030" points="101.5,151" fill="white"></polygon><polygon id="SvgjsPolygon1031" points="101.5,200.5" fill="white"></polygon><polygon id="SvgjsPolygon1032" points="101.5,250" fill="white"></polygon><polygon id="SvgjsPolygon1033" points="101.5,299.5" fill="white"></polygon><polygon id="SvgjsPolygon1034" points="101.5,349" fill="white"></polygon><polygon id="SvgjsPolygon1035" points="101.5,398.5" fill="white"></polygon><polygon id="SvgjsPolygon1036" points="101.5,448" fill="white"></polygon><polygon id="SvgjsPolygon1037" points="151,2.5" fill="white"></polygon><polygon id="SvgjsPolygon1038" points="151,52" fill="white"></polygon><polygon id="SvgjsPolygon1039" points="151,101.5" fill="white"></polygon><polygon id="SvgjsPolygon1040" points="151,151" fill="white"></polygon><polygon id="SvgjsPolygon1041" points="151,200.5" fill="white"></polygon><polygon id="SvgjsPolygon1042" points="151,250" fill="white"></polygon><polygon id="SvgjsPolygon1043" points="151,299.5" fill="white"></polygon><polygon id="SvgjsPolygon1044" points="151,349" fill="white"></polygon><polygon id="SvgjsPolygon1045" points="151,398.5" fill="white"></polygon><polygon id="SvgjsPolygon1046" points="151,448" fill="white"></polygon><line id="SvgjsLine1047" x1="2.5" y1="2.5" x2="52" y2="2.5" stroke-linecap="round" stroke="black" stroke-width="5"></line><line id="SvgjsLine1048" x1="2.5" y1="2.5" x2="2.5" y2="52" stroke-linecap="round" stroke="black" stroke-width="5"></line><line id="SvgjsLine1049" x1="52" y1="52" x2="52" y2="101.5" stroke-linecap="round" stroke="black" stroke-width="5"></line><line id="SvgjsLine1050" x1="2.5" y1="52" x2="2.5" y2="101.5" stroke-linecap="round" stroke="black" stroke-width="5"></line><line id="SvgjsLine1051" x1="52" y1="101.5" x2="52" y2="151" stroke-linecap="round" stroke="black" stroke-width="5"></line><line id="SvgjsLine1052" x1="2.5" y1="101.5" x2="2.5" y2="151" stroke-linecap="round" stroke="black" stroke-width="5"></line><line id="SvgjsLine1053" x1="2.5" y1="200.5" x2="52" y2="200.5" stroke-linecap="round" stroke="black" stroke-width="5"></line><line id="SvgjsLine1054" x1="2.5" y1="151" x2="2.5" y2="200.5" stroke-linecap="round" stroke="black" stroke-width="5"></line><line id="SvgjsLine1055" x1="2.5" y1="200.5" x2="52" y2="200.5" stroke-linecap="round" stroke="black" stroke-width="5"></line><line id="SvgjsLine1056" x1="2.5" y1="200.5" x2="2.5" y2="250" stroke-linecap="round" stroke="black" stroke-width="5"></line><line id="SvgjsLine1057" x1="2.5" y1="250" x2="2.5" y2="299.5" stroke-linecap="round" stroke="black" stroke-width="5"></line><line id="SvgjsLine1058" x1="2.5" y1="349" x2="52" y2="349" stroke-linecap="round" stroke="black" stroke-width="5"></line><line id="SvgjsLine1059" x1="52" y1="299.5" x2="52" y2="349" stroke-linecap="round" stroke="black" stroke-width="5"></line><line id="SvgjsLine1060" x1="2.5" y1="299.5" x2="2.5" y2="349" stroke-linecap="round" stroke="black" stroke-width="5"></line><line id="SvgjsLine1061" x1="2.5" y1="349" x2="52" y2="349" stroke-linecap="round" stroke="black" stroke-width="5"></line><line id="SvgjsLine1062" x1="2.5" y1="349" x2="2.5" y2="398.5" stroke-linecap="round" stroke="black" stroke-width="5"></line><line id="SvgjsLine1063" x1="2.5" y1="398.5" x2="2.5" y2="448" stroke-linecap="round" stroke="black" stroke-width="5"></line><line id="SvgjsLine1064" x1="2.5" y1="497.5" x2="52" y2="497.5" stroke-linecap="round" stroke="black" stroke-width="5"></line><line id="SvgjsLine1065" x1="2.5" y1="448" x2="2.5" y2="497.5" stroke-linecap="round" stroke="black" stroke-width="5"></line><line id="SvgjsLine1066" x1="52" y1="52" x2="101.5" y2="52" stroke-linecap="round" stroke="black" stroke-width="5"></line><line id="SvgjsLine1067" x1="52" y1="52" x2="101.5" y2="52" stroke-linecap="round" stroke="black" stroke-width="5"></line><line id="SvgjsLine1068" x1="52" y1="52" x2="52" y2="101.5" stroke-linecap="round" stroke="black" stroke-width="5"></line><line id="SvgjsLine1069" x1="52" y1="151" x2="101.5" y2="151" stroke-linecap="round" stroke="black" stroke-width="5"></line><line id="SvgjsLine1070" x1="52" y1="101.5" x2="52" y2="151" stroke-linecap="round" stroke="black" stroke-width="5"></line><line id="SvgjsLine1071" x1="52" y1="151" x2="101.5" y2="151" stroke-linecap="round" stroke="black" stroke-width="5"></line><line id="SvgjsLine1072" x1="101.5" y1="151" x2="101.5" y2="200.5" stroke-linecap="round" stroke="black" stroke-width="5"></line><line id="SvgjsLine1073" x1="52" y1="250" x2="101.5" y2="250" stroke-linecap="round" stroke="black" stroke-width="5"></line><line id="SvgjsLine1074" x1="101.5" y1="200.5" x2="101.5" y2="250" stroke-linecap="round" stroke="black" stroke-width="5"></line><line id="SvgjsLine1075" x1="52" y1="250" x2="101.5" y2="250" stroke-linecap="round" stroke="black" stroke-width="5"></line><line id="SvgjsLine1076" x1="101.5" y1="250" x2="101.5" y2="299.5" stroke-linecap="round" stroke="black" stroke-width="5"></line><line id="SvgjsLine1077" x1="101.5" y1="299.5" x2="101.5" y2="349" stroke-linecap="round" stroke="black" stroke-width="5"></line><line id="SvgjsLine1078" x1="52" y1="299.5" x2="52" y2="349" stroke-linecap="round" stroke="black" stroke-width="5"></line><line id="SvgjsLine1079" x1="52" y1="398.5" x2="101.5" y2="398.5" stroke-linecap="round" stroke="black" stroke-width="5"></line><line id="SvgjsLine1080" x1="101.5" y1="349" x2="101.5" y2="398.5" stroke-linecap="round" stroke="black" stroke-width="5"></line><line id="SvgjsLine1081" x1="52" y1="398.5" x2="101.5" y2="398.5" stroke-linecap="round" stroke="black" stroke-width="5"></line><line id="SvgjsLine1082" x1="52" y1="448" x2="101.5" y2="448" stroke-linecap="round" stroke="black" stroke-width="5"></line><line id="SvgjsLine1083" x1="52" y1="448" x2="101.5" y2="448" stroke-linecap="round" stroke="black" stroke-width="5"></line><line id="SvgjsLine1084" x1="101.5" y1="2.5" x2="151" y2="2.5" stroke-linecap="round" stroke="black" stroke-width="5"></line><line id="SvgjsLine1085" x1="151" y1="2.5" x2="151" y2="52" stroke-linecap="round" stroke="black" stroke-width="5"></line><line id="SvgjsLine1086" x1="101.5" y1="101.5" x2="151" y2="101.5" stroke-linecap="round" stroke="black" stroke-width="5"></line><line id="SvgjsLine1087" x1="151" y1="52" x2="151" y2="101.5" stroke-linecap="round" stroke="black" stroke-width="5"></line><line id="SvgjsLine1088" x1="101.5" y1="101.5" x2="151" y2="101.5" stroke-linecap="round" stroke="black" stroke-width="5"></line><line id="SvgjsLine1089" x1="101.5" y1="151" x2="151" y2="151" stroke-linecap="round" stroke="black" stroke-width="5"></line><line id="SvgjsLine1090" x1="101.5" y1="151" x2="151" y2="151" stroke-linecap="round" stroke="black" stroke-width="5"></line><line id="SvgjsLine1091" x1="151" y1="151" x2="151" y2="200.5" stroke-linecap="round" stroke="black" stroke-width="5"></line><line id="SvgjsLine1092" x1="101.5" y1="151" x2="101.5" y2="200.5" stroke-linecap="round" stroke="black" stroke-width="5"></line><line id="SvgjsLine1093" x1="101.5" y1="200.5" x2="101.5" y2="250" stroke-linecap="round" stroke="black" stroke-width="5"></line><line id="SvgjsLine1094" x1="101.5" y1="299.5" x2="151" y2="299.5" stroke-linecap="round" stroke="black" stroke-width="5"></line><line id="SvgjsLine1095" x1="101.5" y1="250" x2="101.5" y2="299.5" stroke-linecap="round" stroke="black" stroke-width="5"></line><line id="SvgjsLine1096" x1="101.5" y1="299.5" x2="151" y2="299.5" stroke-linecap="round" stroke="black" stroke-width="5"></line><line id="SvgjsLine1097" x1="101.5" y1="299.5" x2="101.5" y2="349" stroke-linecap="round" stroke="black" stroke-width="5"></line><line id="SvgjsLine1098" x1="151" y1="349" x2="151" y2="398.5" stroke-linecap="round" stroke="black" stroke-width="5"></line><line id="SvgjsLine1099" x1="101.5" y1="349" x2="101.5" y2="398.5" stroke-linecap="round" stroke="black" stroke-width="5"></line><line id="SvgjsLine1100" x1="101.5" y1="448" x2="151" y2="448" stroke-linecap="round" stroke="black" stroke-width="5"></line><line id="SvgjsLine1101" x1="151" y1="398.5" x2="151" y2="448" stroke-linecap="round" stroke="black" stroke-width="5"></line><line id="SvgjsLine1102" x1="101.5" y1="448" x2="151" y2="448" stroke-linecap="round" stroke="black" stroke-width="5"></line><line id="SvgjsLine1103" x1="101.5" y1="497.5" x2="151" y2="497.5" stroke-linecap="round" stroke="black" stroke-width="5"></line><line id="SvgjsLine1104" x1="151" y1="2.5" x2="200.5" y2="2.5" stroke-linecap="round" stroke="black" stroke-width="5"></line><line id="SvgjsLine1105" x1="200.5" y1="2.5" x2="200.5" y2="52" stroke-linecap="round" stroke="black" stroke-width="5"></line><line id="SvgjsLine1106" x1="151" y1="2.5" x2="151" y2="52" stroke-linecap="round" stroke="black" stroke-width="5"></line><line id="SvgjsLine1107" x1="200.5" y1="52" x2="200.5" y2="101.5" stroke-linecap="round" stroke="black" stroke-width="5"></line><line id="SvgjsLine1108" x1="151" y1="52" x2="151" y2="101.5" stroke-linecap="round" stroke="black" stroke-width="5"></line><line id="SvgjsLine1109" x1="200.5" y1="101.5" x2="200.5" y2="151" stroke-linecap="round" stroke="black" stroke-width="5"></line><line id="SvgjsLine1110" x1="200.5" y1="151" x2="200.5" y2="200.5" stroke-linecap="round" stroke="black" stroke-width="5"></line><line id="SvgjsLine1111" x1="151" y1="151" x2="151" y2="200.5" stroke-linecap="round" stroke="black" stroke-width="5"></line><line id="SvgjsLine1112" x1="151" y1="250" x2="200.5" y2="250" stroke-linecap="round" stroke="black" stroke-width="5"></line><line id="SvgjsLine1113" x1="200.5" y1="200.5" x2="200.5" y2="250" stroke-linecap="round" stroke="black" stroke-width="5"></line><line id="SvgjsLine1114" x1="151" y1="250" x2="200.5" y2="250" stroke-linecap="round" stroke="black" stroke-width="5"></line><line id="SvgjsLine1115" x1="151" y1="299.5" x2="200.5" y2="299.5" stroke-linecap="round" stroke="black" stroke-width="5"></line><line id="SvgjsLine1116" x1="200.5" y1="250" x2="200.5" y2="299.5" stroke-linecap="round" stroke="black" stroke-width="5"></line><line id="SvgjsLine1117" x1="151" y1="299.5" x2="200.5" y2="299.5" stroke-linecap="round" stroke="black" stroke-width="5"></line><line id="SvgjsLine1118" x1="151" y1="349" x2="200.5" y2="349" stroke-linecap="round" stroke="black" stroke-width="5"></line><line id="SvgjsLine1119" x1="200.5" y1="299.5" x2="200.5" y2="349" stroke-linecap="round" stroke="black" stroke-width="5"></line><line id="SvgjsLine1120" x1="151" y1="349" x2="200.5" y2="349" stroke-linecap="round" stroke="black" stroke-width="5"></line><line id="SvgjsLine1121" x1="200.5" y1="349" x2="200.5" y2="398.5" stroke-linecap="round" stroke="black" stroke-width="5"></line><line id="SvgjsLine1122" x1="151" y1="349" x2="151" y2="398.5" stroke-linecap="round" stroke="black" stroke-width="5"></line><line id="SvgjsLine1123" x1="200.5" y1="398.5" x2="200.5" y2="448" stroke-linecap="round" stroke="black" stroke-width="5"></line><line id="SvgjsLine1124" x1="151" y1="398.5" x2="151" y2="448" stroke-linecap="round" stroke="black" stroke-width="5"></line><line id="SvgjsLine1125" x1="151" y1="497.5" x2="200.5" y2="497.5" stroke-linecap="round" stroke="black" stroke-width="5"></line><line id="SvgjsLine1126" x1="200.5" y1="448" x2="200.5" y2="497.5" stroke-linecap="round" stroke="black" stroke-width="5"></line></svg>